<mxfile host="app.diagrams.net" modified="2023-10-26T13:38:21.024Z" agent="Mozilla/5.0 (Macintosh; Intel Mac OS X 10.15; rv:120.0) Gecko/20100101 Firefox/120.0" etag="_ikFERmh8UJO-70e7sDu" version="22.0.8" type="device">
  <diagram id="R2lEEEUBdFMjLlhIrx00" name="Page-1">
    <mxGraphModel dx="380" dy="238" grid="1" gridSize="10" guides="1" tooltips="1" connect="1" arrows="1" fold="1" page="1" pageScale="1" pageWidth="3300" pageHeight="4681" math="0" shadow="0" extFonts="Permanent Marker^https://fonts.googleapis.com/css?family=Permanent+Marker">
      <root>
        <mxCell id="0" />
        <mxCell id="1" parent="0" />
        <mxCell id="1GTwUBaE6gafLs46mViq-3" value="&lt;div&gt;Utenti&lt;/div&gt;" style="rounded=0;whiteSpace=wrap;html=1;" parent="1" vertex="1">
          <mxGeometry x="40" y="110" width="120" height="60" as="geometry" />
        </mxCell>
        <mxCell id="1GTwUBaE6gafLs46mViq-30" value="" style="endArrow=oval;html=1;rounded=0;exitX=0.5;exitY=0;exitDx=0;exitDy=0;endFill=0;" parent="1" target="1GTwUBaE6gafLs46mViq-31" edge="1">
          <mxGeometry width="50" height="50" relative="1" as="geometry">
            <mxPoint x="70" y="110" as="sourcePoint" />
            <mxPoint x="70" y="60" as="targetPoint" />
          </mxGeometry>
        </mxCell>
        <mxCell id="1GTwUBaE6gafLs46mViq-31" value="&lt;font style=&quot;font-size: 7px;&quot;&gt;Nome&lt;/font&gt;" style="text;html=1;strokeColor=none;fillColor=none;align=center;verticalAlign=middle;whiteSpace=wrap;rounded=0;" parent="1" vertex="1">
          <mxGeometry x="40" y="50" width="60" height="30" as="geometry" />
        </mxCell>
        <mxCell id="1GTwUBaE6gafLs46mViq-38" value="" style="endArrow=oval;html=1;rounded=0;exitX=0.417;exitY=0;exitDx=0;exitDy=0;endFill=0;exitPerimeter=0;" parent="1" source="1GTwUBaE6gafLs46mViq-3" target="1GTwUBaE6gafLs46mViq-39" edge="1">
          <mxGeometry width="50" height="50" relative="1" as="geometry">
            <mxPoint x="90" y="90" as="sourcePoint" />
            <mxPoint x="90" y="40" as="targetPoint" />
          </mxGeometry>
        </mxCell>
        <mxCell id="1GTwUBaE6gafLs46mViq-39" value="&lt;div style=&quot;font-size: 7px;&quot;&gt;Cognome&lt;/div&gt;" style="text;html=1;strokeColor=none;fillColor=none;align=center;verticalAlign=middle;whiteSpace=wrap;rounded=0;" parent="1" vertex="1">
          <mxGeometry x="60" y="20" width="60" height="30" as="geometry" />
        </mxCell>
        <mxCell id="1GTwUBaE6gafLs46mViq-41" value="" style="endArrow=oval;html=1;rounded=0;exitX=0.5;exitY=0;exitDx=0;exitDy=0;endFill=0;" parent="1" target="1GTwUBaE6gafLs46mViq-42" edge="1">
          <mxGeometry width="50" height="50" relative="1" as="geometry">
            <mxPoint x="110" y="110" as="sourcePoint" />
            <mxPoint x="110" y="60" as="targetPoint" />
          </mxGeometry>
        </mxCell>
        <mxCell id="1GTwUBaE6gafLs46mViq-42" value="&lt;font style=&quot;font-size: 7px;&quot;&gt;Email&lt;/font&gt;" style="text;html=1;strokeColor=none;fillColor=none;align=center;verticalAlign=middle;whiteSpace=wrap;rounded=0;" parent="1" vertex="1">
          <mxGeometry x="80" y="50" width="60" height="30" as="geometry" />
        </mxCell>
        <mxCell id="1GTwUBaE6gafLs46mViq-43" value="" style="endArrow=oval;html=1;rounded=0;exitX=0.417;exitY=0;exitDx=0;exitDy=0;endFill=0;exitPerimeter=0;" parent="1" target="1GTwUBaE6gafLs46mViq-44" edge="1">
          <mxGeometry width="50" height="50" relative="1" as="geometry">
            <mxPoint x="130" y="110" as="sourcePoint" />
            <mxPoint x="130" y="40" as="targetPoint" />
          </mxGeometry>
        </mxCell>
        <mxCell id="1GTwUBaE6gafLs46mViq-44" value="&lt;div style=&quot;font-size: 7px;&quot;&gt;Psw&lt;br&gt;&lt;/div&gt;" style="text;html=1;strokeColor=none;fillColor=none;align=center;verticalAlign=middle;whiteSpace=wrap;rounded=0;" parent="1" vertex="1">
          <mxGeometry x="100" y="20" width="60" height="30" as="geometry" />
        </mxCell>
        <mxCell id="1GTwUBaE6gafLs46mViq-45" value="" style="endArrow=oval;html=1;rounded=0;exitX=0.5;exitY=0;exitDx=0;exitDy=0;endFill=0;" parent="1" target="1GTwUBaE6gafLs46mViq-46" edge="1">
          <mxGeometry width="50" height="50" relative="1" as="geometry">
            <mxPoint x="150" y="110" as="sourcePoint" />
            <mxPoint x="150" y="60" as="targetPoint" />
          </mxGeometry>
        </mxCell>
        <mxCell id="1GTwUBaE6gafLs46mViq-46" value="&lt;font style=&quot;font-size: 7px;&quot;&gt;Ruolo&lt;/font&gt;" style="text;html=1;strokeColor=none;fillColor=none;align=center;verticalAlign=middle;whiteSpace=wrap;rounded=0;" parent="1" vertex="1">
          <mxGeometry x="120" y="50" width="60" height="30" as="geometry" />
        </mxCell>
        <mxCell id="1GTwUBaE6gafLs46mViq-53" value="" style="endArrow=oval;html=1;rounded=0;exitX=0.417;exitY=0;exitDx=0;exitDy=0;endFill=1;exitPerimeter=0;" parent="1" target="1GTwUBaE6gafLs46mViq-54" edge="1">
          <mxGeometry width="50" height="50" relative="1" as="geometry">
            <mxPoint x="50" y="110" as="sourcePoint" />
            <mxPoint x="50" y="40" as="targetPoint" />
          </mxGeometry>
        </mxCell>
        <mxCell id="1GTwUBaE6gafLs46mViq-54" value="&lt;div style=&quot;font-size: 7px;&quot;&gt;ID_utente&lt;/div&gt;" style="text;html=1;strokeColor=none;fillColor=none;align=center;verticalAlign=middle;whiteSpace=wrap;rounded=0;" parent="1" vertex="1">
          <mxGeometry x="20" y="20" width="60" height="30" as="geometry" />
        </mxCell>
        <mxCell id="1GTwUBaE6gafLs46mViq-55" value="Veicoli" style="rounded=0;whiteSpace=wrap;html=1;" parent="1" vertex="1">
          <mxGeometry x="350" y="110" width="120" height="60" as="geometry" />
        </mxCell>
        <mxCell id="1GTwUBaE6gafLs46mViq-56" value="" style="endArrow=oval;html=1;rounded=0;exitX=0.5;exitY=0;exitDx=0;exitDy=0;endFill=0;" parent="1" target="1GTwUBaE6gafLs46mViq-57" edge="1">
          <mxGeometry width="50" height="50" relative="1" as="geometry">
            <mxPoint x="380" y="110" as="sourcePoint" />
            <mxPoint x="380" y="60" as="targetPoint" />
          </mxGeometry>
        </mxCell>
        <mxCell id="1GTwUBaE6gafLs46mViq-57" value="&lt;font style=&quot;font-size: 7px;&quot;&gt;Marca&lt;/font&gt;" style="text;html=1;strokeColor=none;fillColor=none;align=center;verticalAlign=middle;whiteSpace=wrap;rounded=0;" parent="1" vertex="1">
          <mxGeometry x="350" y="50" width="60" height="30" as="geometry" />
        </mxCell>
        <mxCell id="1GTwUBaE6gafLs46mViq-58" value="" style="endArrow=oval;html=1;rounded=0;exitX=0.417;exitY=0;exitDx=0;exitDy=0;endFill=0;exitPerimeter=0;" parent="1" source="1GTwUBaE6gafLs46mViq-55" target="1GTwUBaE6gafLs46mViq-59" edge="1">
          <mxGeometry width="50" height="50" relative="1" as="geometry">
            <mxPoint x="400" y="90" as="sourcePoint" />
            <mxPoint x="400" y="40" as="targetPoint" />
          </mxGeometry>
        </mxCell>
        <mxCell id="1GTwUBaE6gafLs46mViq-59" value="&lt;font style=&quot;font-size: 7px;&quot;&gt;Modello&lt;/font&gt;" style="text;html=1;strokeColor=none;fillColor=none;align=center;verticalAlign=middle;whiteSpace=wrap;rounded=0;" parent="1" vertex="1">
          <mxGeometry x="370" y="20" width="60" height="30" as="geometry" />
        </mxCell>
        <mxCell id="1GTwUBaE6gafLs46mViq-60" value="" style="endArrow=oval;html=1;rounded=0;exitX=0.5;exitY=0;exitDx=0;exitDy=0;endFill=1;fontColor=#FFFFFF;strokeColor=#000000;labelBackgroundColor=#757575;" parent="1" target="1GTwUBaE6gafLs46mViq-61" edge="1">
          <mxGeometry width="50" height="50" relative="1" as="geometry">
            <mxPoint x="420" y="110" as="sourcePoint" />
            <mxPoint x="420" y="60" as="targetPoint" />
          </mxGeometry>
        </mxCell>
        <mxCell id="1GTwUBaE6gafLs46mViq-61" value="&lt;font style=&quot;font-size: 7px;&quot;&gt;ID_&lt;font style=&quot;font-size: 7px;&quot;&gt;Autista&lt;/font&gt;&lt;/font&gt;" style="text;html=1;strokeColor=none;fillColor=none;align=center;verticalAlign=middle;whiteSpace=wrap;rounded=0;" parent="1" vertex="1">
          <mxGeometry x="390" y="50" width="60" height="30" as="geometry" />
        </mxCell>
        <mxCell id="1GTwUBaE6gafLs46mViq-66" value="" style="endArrow=oval;html=1;rounded=0;exitX=0.417;exitY=0;exitDx=0;exitDy=0;endFill=1;exitPerimeter=0;" parent="1" target="1GTwUBaE6gafLs46mViq-67" edge="1">
          <mxGeometry width="50" height="50" relative="1" as="geometry">
            <mxPoint x="360" y="110" as="sourcePoint" />
            <mxPoint x="360" y="40" as="targetPoint" />
          </mxGeometry>
        </mxCell>
        <mxCell id="1GTwUBaE6gafLs46mViq-67" value="&lt;div style=&quot;font-size: 7px;&quot;&gt;Targa&lt;/div&gt;" style="text;html=1;strokeColor=none;fillColor=none;align=center;verticalAlign=middle;whiteSpace=wrap;rounded=0;" parent="1" vertex="1">
          <mxGeometry x="330" y="20" width="60" height="30" as="geometry" />
        </mxCell>
        <mxCell id="1GTwUBaE6gafLs46mViq-72" value="&lt;div&gt;Guida&lt;/div&gt;" style="shape=rhombus;perimeter=rhombusPerimeter;whiteSpace=wrap;html=1;align=center;" parent="1" vertex="1">
          <mxGeometry x="220" y="120" width="70" height="40" as="geometry" />
        </mxCell>
        <mxCell id="1GTwUBaE6gafLs46mViq-77" value="" style="shape=waypoint;sketch=0;fillStyle=solid;size=6;pointerEvents=1;points=[];fillColor=none;resizable=0;rotatable=0;perimeter=centerPerimeter;snapToPoint=1;strokeColor=#8F8F8F;" parent="1" vertex="1">
          <mxGeometry x="410" y="70" width="20" height="20" as="geometry" />
        </mxCell>
        <mxCell id="WVK-Z61vjBoYHEyCaG1b-1" value="Tratta" style="rounded=0;whiteSpace=wrap;html=1;" vertex="1" parent="1">
          <mxGeometry x="40" y="620" width="120" height="60" as="geometry" />
        </mxCell>
        <mxCell id="WVK-Z61vjBoYHEyCaG1b-2" value="" style="endArrow=oval;html=1;rounded=0;exitX=0.5;exitY=0;exitDx=0;exitDy=0;endFill=0;" edge="1" parent="1">
          <mxGeometry width="50" height="50" relative="1" as="geometry">
            <mxPoint x="70" y="620" as="sourcePoint" />
            <mxPoint x="70" y="590" as="targetPoint" />
          </mxGeometry>
        </mxCell>
        <mxCell id="WVK-Z61vjBoYHEyCaG1b-3" value="&lt;font style=&quot;font-size: 7px;&quot;&gt;Tempistica&lt;br&gt;&lt;/font&gt;" style="text;html=1;strokeColor=none;fillColor=none;align=center;verticalAlign=middle;whiteSpace=wrap;rounded=0;" vertex="1" parent="1">
          <mxGeometry x="40" y="560" width="60" height="30" as="geometry" />
        </mxCell>
        <mxCell id="WVK-Z61vjBoYHEyCaG1b-4" value="" style="endArrow=oval;html=1;rounded=0;exitX=0.417;exitY=0;exitDx=0;exitDy=0;endFill=0;exitPerimeter=0;" edge="1" parent="1" source="WVK-Z61vjBoYHEyCaG1b-1" target="WVK-Z61vjBoYHEyCaG1b-5">
          <mxGeometry width="50" height="50" relative="1" as="geometry">
            <mxPoint x="90" y="600" as="sourcePoint" />
            <mxPoint x="90" y="550" as="targetPoint" />
          </mxGeometry>
        </mxCell>
        <mxCell id="WVK-Z61vjBoYHEyCaG1b-5" value="&lt;font style=&quot;font-size: 7px;&quot;&gt;Costo&lt;/font&gt;" style="text;html=1;strokeColor=none;fillColor=none;align=center;verticalAlign=middle;whiteSpace=wrap;rounded=0;" vertex="1" parent="1">
          <mxGeometry x="60" y="530" width="60" height="30" as="geometry" />
        </mxCell>
        <mxCell id="WVK-Z61vjBoYHEyCaG1b-8" value="" style="endArrow=oval;html=1;rounded=0;exitX=0.417;exitY=0;exitDx=0;exitDy=0;endFill=1;exitPerimeter=0;" edge="1" parent="1" target="WVK-Z61vjBoYHEyCaG1b-9">
          <mxGeometry width="50" height="50" relative="1" as="geometry">
            <mxPoint x="50" y="620" as="sourcePoint" />
            <mxPoint x="50" y="550" as="targetPoint" />
          </mxGeometry>
        </mxCell>
        <mxCell id="WVK-Z61vjBoYHEyCaG1b-9" value="&lt;font style=&quot;font-size: 7px;&quot;&gt;ID_tratta&lt;br&gt;&lt;/font&gt;" style="text;html=1;strokeColor=none;fillColor=none;align=center;verticalAlign=middle;whiteSpace=wrap;rounded=0;" vertex="1" parent="1">
          <mxGeometry x="20" y="530" width="60" height="30" as="geometry" />
        </mxCell>
        <mxCell id="WVK-Z61vjBoYHEyCaG1b-10" value="" style="shape=waypoint;sketch=0;fillStyle=solid;size=6;pointerEvents=1;points=[];fillColor=none;resizable=0;rotatable=0;perimeter=centerPerimeter;snapToPoint=1;strokeColor=#FFFFFF;strokeWidth=1;perimeterSpacing=0;" vertex="1" parent="1">
          <mxGeometry x="100" y="580" width="20" height="20" as="geometry" />
        </mxCell>
        <mxCell id="WVK-Z61vjBoYHEyCaG1b-11" value="" style="endArrow=oval;html=1;rounded=0;exitX=0.5;exitY=0;exitDx=0;exitDy=0;endFill=0;" edge="1" parent="1">
          <mxGeometry width="50" height="50" relative="1" as="geometry">
            <mxPoint x="110" y="620" as="sourcePoint" />
            <mxPoint x="110" y="590" as="targetPoint" />
          </mxGeometry>
        </mxCell>
        <mxCell id="WVK-Z61vjBoYHEyCaG1b-12" value="&lt;font style=&quot;font-size: 7px;&quot;&gt;Partenza&lt;br&gt;&lt;/font&gt;" style="text;html=1;strokeColor=none;fillColor=none;align=center;verticalAlign=middle;whiteSpace=wrap;rounded=0;" vertex="1" parent="1">
          <mxGeometry x="80" y="560" width="60" height="30" as="geometry" />
        </mxCell>
        <mxCell id="WVK-Z61vjBoYHEyCaG1b-15" value="" style="endArrow=oval;html=1;rounded=0;exitX=0.417;exitY=0;exitDx=0;exitDy=0;endFill=0;exitPerimeter=0;" edge="1" parent="1" target="WVK-Z61vjBoYHEyCaG1b-16">
          <mxGeometry width="50" height="50" relative="1" as="geometry">
            <mxPoint x="130" y="620" as="sourcePoint" />
            <mxPoint x="130" y="550" as="targetPoint" />
          </mxGeometry>
        </mxCell>
        <mxCell id="WVK-Z61vjBoYHEyCaG1b-16" value="&lt;font style=&quot;font-size: 7px;&quot;&gt;Arrivo&lt;/font&gt;" style="text;html=1;strokeColor=none;fillColor=none;align=center;verticalAlign=middle;whiteSpace=wrap;rounded=0;" vertex="1" parent="1">
          <mxGeometry x="100" y="530" width="60" height="30" as="geometry" />
        </mxCell>
        <mxCell id="WVK-Z61vjBoYHEyCaG1b-17" value="Feedback" style="rounded=0;whiteSpace=wrap;html=1;" vertex="1" parent="1">
          <mxGeometry x="190" y="620" width="120" height="60" as="geometry" />
        </mxCell>
        <mxCell id="WVK-Z61vjBoYHEyCaG1b-18" value="" style="endArrow=oval;html=1;rounded=0;exitX=0.5;exitY=0;exitDx=0;exitDy=0;endFill=0;" edge="1" parent="1">
          <mxGeometry width="50" height="50" relative="1" as="geometry">
            <mxPoint x="220" y="620" as="sourcePoint" />
            <mxPoint x="220" y="590" as="targetPoint" />
          </mxGeometry>
        </mxCell>
        <mxCell id="WVK-Z61vjBoYHEyCaG1b-20" value="" style="endArrow=oval;html=1;rounded=0;exitX=0.417;exitY=0;exitDx=0;exitDy=0;endFill=0;exitPerimeter=0;" edge="1" parent="1" source="WVK-Z61vjBoYHEyCaG1b-17" target="WVK-Z61vjBoYHEyCaG1b-21">
          <mxGeometry width="50" height="50" relative="1" as="geometry">
            <mxPoint x="240" y="600" as="sourcePoint" />
            <mxPoint x="240" y="550" as="targetPoint" />
          </mxGeometry>
        </mxCell>
        <mxCell id="WVK-Z61vjBoYHEyCaG1b-21" value="&lt;font style=&quot;font-size: 7px;&quot;&gt;Costo&lt;/font&gt;" style="text;html=1;strokeColor=none;fillColor=none;align=center;verticalAlign=middle;whiteSpace=wrap;rounded=0;" vertex="1" parent="1">
          <mxGeometry x="210" y="530" width="60" height="30" as="geometry" />
        </mxCell>
        <mxCell id="WVK-Z61vjBoYHEyCaG1b-22" value="" style="endArrow=oval;html=1;rounded=0;exitX=0.417;exitY=0;exitDx=0;exitDy=0;endFill=1;exitPerimeter=0;" edge="1" parent="1" target="WVK-Z61vjBoYHEyCaG1b-23">
          <mxGeometry width="50" height="50" relative="1" as="geometry">
            <mxPoint x="200" y="620" as="sourcePoint" />
            <mxPoint x="200" y="550" as="targetPoint" />
          </mxGeometry>
        </mxCell>
        <mxCell id="WVK-Z61vjBoYHEyCaG1b-23" value="&lt;font style=&quot;font-size: 7px;&quot;&gt;ID_feedback&lt;/font&gt;" style="text;html=1;strokeColor=none;fillColor=none;align=center;verticalAlign=middle;whiteSpace=wrap;rounded=0;" vertex="1" parent="1">
          <mxGeometry x="170" y="530" width="60" height="30" as="geometry" />
        </mxCell>
        <mxCell id="WVK-Z61vjBoYHEyCaG1b-24" value="" style="shape=waypoint;sketch=0;fillStyle=solid;size=6;pointerEvents=1;points=[];fillColor=none;resizable=0;rotatable=0;perimeter=centerPerimeter;snapToPoint=1;strokeColor=#FFFFFF;strokeWidth=1;perimeterSpacing=0;" vertex="1" parent="1">
          <mxGeometry x="250" y="580" width="20" height="20" as="geometry" />
        </mxCell>
        <mxCell id="WVK-Z61vjBoYHEyCaG1b-25" value="" style="endArrow=oval;html=1;rounded=0;exitX=0.5;exitY=0;exitDx=0;exitDy=0;endFill=0;" edge="1" parent="1">
          <mxGeometry width="50" height="50" relative="1" as="geometry">
            <mxPoint x="260" y="620" as="sourcePoint" />
            <mxPoint x="260" y="590" as="targetPoint" />
          </mxGeometry>
        </mxCell>
        <mxCell id="WVK-Z61vjBoYHEyCaG1b-26" value="&lt;font style=&quot;font-size: 7px;&quot;&gt;Partenza&lt;br&gt;&lt;/font&gt;" style="text;html=1;strokeColor=none;fillColor=none;align=center;verticalAlign=middle;whiteSpace=wrap;rounded=0;" vertex="1" parent="1">
          <mxGeometry x="230" y="560" width="60" height="30" as="geometry" />
        </mxCell>
        <mxCell id="WVK-Z61vjBoYHEyCaG1b-27" value="" style="endArrow=oval;html=1;rounded=0;exitX=0.417;exitY=0;exitDx=0;exitDy=0;endFill=0;exitPerimeter=0;" edge="1" parent="1" target="WVK-Z61vjBoYHEyCaG1b-28">
          <mxGeometry width="50" height="50" relative="1" as="geometry">
            <mxPoint x="280" y="620" as="sourcePoint" />
            <mxPoint x="280" y="550" as="targetPoint" />
          </mxGeometry>
        </mxCell>
        <mxCell id="WVK-Z61vjBoYHEyCaG1b-28" value="&lt;font style=&quot;font-size: 7px;&quot;&gt;Arrivo&lt;/font&gt;" style="text;html=1;strokeColor=none;fillColor=none;align=center;verticalAlign=middle;whiteSpace=wrap;rounded=0;" vertex="1" parent="1">
          <mxGeometry x="250" y="530" width="60" height="30" as="geometry" />
        </mxCell>
        <mxCell id="WVK-Z61vjBoYHEyCaG1b-30" value="" style="endArrow=none;html=1;rounded=0;exitX=1;exitY=0.5;exitDx=0;exitDy=0;entryX=0;entryY=0.5;entryDx=0;entryDy=0;" edge="1" parent="1" source="1GTwUBaE6gafLs46mViq-3" target="1GTwUBaE6gafLs46mViq-72">
          <mxGeometry relative="1" as="geometry">
            <mxPoint x="210" y="200" as="sourcePoint" />
            <mxPoint x="370" y="200" as="targetPoint" />
          </mxGeometry>
        </mxCell>
        <mxCell id="WVK-Z61vjBoYHEyCaG1b-31" value="1,n" style="resizable=0;html=1;whiteSpace=wrap;align=right;verticalAlign=bottom;" connectable="0" vertex="1" parent="WVK-Z61vjBoYHEyCaG1b-30">
          <mxGeometry x="1" relative="1" as="geometry" />
        </mxCell>
        <mxCell id="WVK-Z61vjBoYHEyCaG1b-32" value="" style="endArrow=none;html=1;rounded=0;entryX=0;entryY=0.5;entryDx=0;entryDy=0;" edge="1" parent="1" target="1GTwUBaE6gafLs46mViq-55">
          <mxGeometry relative="1" as="geometry">
            <mxPoint x="290" y="140" as="sourcePoint" />
            <mxPoint x="340" y="140" as="targetPoint" />
          </mxGeometry>
        </mxCell>
        <mxCell id="WVK-Z61vjBoYHEyCaG1b-33" value="1,n" style="resizable=0;html=1;whiteSpace=wrap;align=right;verticalAlign=bottom;" connectable="0" vertex="1" parent="WVK-Z61vjBoYHEyCaG1b-32">
          <mxGeometry x="1" relative="1" as="geometry">
            <mxPoint x="-50" as="offset" />
          </mxGeometry>
        </mxCell>
        <mxCell id="WVK-Z61vjBoYHEyCaG1b-34" value="" style="endArrow=oval;html=1;rounded=0;endFill=1;fontColor=#FFFFFF;strokeColor=#000000;labelBackgroundColor=#757575;exitX=0.285;exitY=0.217;exitDx=0;exitDy=0;exitPerimeter=0;" edge="1" parent="1" target="WVK-Z61vjBoYHEyCaG1b-35" source="1GTwUBaE6gafLs46mViq-72">
          <mxGeometry width="50" height="50" relative="1" as="geometry">
            <mxPoint x="240" y="120" as="sourcePoint" />
            <mxPoint x="240" y="80" as="targetPoint" />
          </mxGeometry>
        </mxCell>
        <mxCell id="WVK-Z61vjBoYHEyCaG1b-35" value="&lt;font style=&quot;font-size: 7px;&quot;&gt;ID_utente&lt;br&gt;&lt;/font&gt;" style="text;html=1;strokeColor=none;fillColor=none;align=center;verticalAlign=middle;whiteSpace=wrap;rounded=0;" vertex="1" parent="1">
          <mxGeometry x="210" y="70" width="60" height="30" as="geometry" />
        </mxCell>
        <mxCell id="WVK-Z61vjBoYHEyCaG1b-36" value="" style="shape=waypoint;sketch=0;fillStyle=solid;size=6;pointerEvents=1;points=[];fillColor=none;resizable=0;rotatable=0;perimeter=centerPerimeter;snapToPoint=1;strokeColor=#8F8F8F;" vertex="1" parent="1">
          <mxGeometry x="230" y="90" width="20" height="20" as="geometry" />
        </mxCell>
        <mxCell id="WVK-Z61vjBoYHEyCaG1b-37" value="" style="endArrow=oval;html=1;rounded=0;endFill=1;fontColor=#FFFFFF;strokeColor=#000000;labelBackgroundColor=#757575;exitX=0.715;exitY=0.213;exitDx=0;exitDy=0;exitPerimeter=0;" edge="1" parent="1" target="WVK-Z61vjBoYHEyCaG1b-38" source="1GTwUBaE6gafLs46mViq-72">
          <mxGeometry width="50" height="50" relative="1" as="geometry">
            <mxPoint x="270" y="120" as="sourcePoint" />
            <mxPoint x="270" y="80" as="targetPoint" />
          </mxGeometry>
        </mxCell>
        <mxCell id="WVK-Z61vjBoYHEyCaG1b-38" value="&lt;font style=&quot;font-size: 7px;&quot;&gt;Targa&lt;/font&gt;" style="text;html=1;strokeColor=none;fillColor=none;align=center;verticalAlign=middle;whiteSpace=wrap;rounded=0;" vertex="1" parent="1">
          <mxGeometry x="240" y="70" width="60" height="30" as="geometry" />
        </mxCell>
        <mxCell id="WVK-Z61vjBoYHEyCaG1b-39" value="" style="shape=waypoint;sketch=0;fillStyle=solid;size=6;pointerEvents=1;points=[];fillColor=none;resizable=0;rotatable=0;perimeter=centerPerimeter;snapToPoint=1;strokeColor=#8F8F8F;" vertex="1" parent="1">
          <mxGeometry x="260" y="90" width="20" height="20" as="geometry" />
        </mxCell>
        <mxCell id="WVK-Z61vjBoYHEyCaG1b-40" value="" style="endArrow=none;html=1;rounded=0;exitX=0.5;exitY=0;exitDx=0;exitDy=0;endFill=0;startArrow=oval;startFill=0;entryX=0.286;entryY=0.778;entryDx=0;entryDy=0;entryPerimeter=0;" edge="1" parent="1" target="1GTwUBaE6gafLs46mViq-72">
          <mxGeometry width="50" height="50" relative="1" as="geometry">
            <mxPoint x="239.78" y="180" as="sourcePoint" />
            <mxPoint x="239.78" y="160" as="targetPoint" />
          </mxGeometry>
        </mxCell>
        <mxCell id="WVK-Z61vjBoYHEyCaG1b-42" value="&lt;font style=&quot;font-size: 7px;&quot;&gt;Data&lt;/font&gt;" style="text;html=1;strokeColor=none;fillColor=none;align=center;verticalAlign=middle;whiteSpace=wrap;rounded=0;" vertex="1" parent="1">
          <mxGeometry x="210" y="170" width="60" height="30" as="geometry" />
        </mxCell>
        <mxCell id="WVK-Z61vjBoYHEyCaG1b-44" value="" style="endArrow=none;html=1;rounded=0;exitX=0.5;exitY=0;exitDx=0;exitDy=0;endFill=0;startArrow=oval;startFill=0;entryX=0.714;entryY=0.792;entryDx=0;entryDy=0;entryPerimeter=0;" edge="1" parent="1" target="1GTwUBaE6gafLs46mViq-72">
          <mxGeometry width="50" height="50" relative="1" as="geometry">
            <mxPoint x="269.78" y="180" as="sourcePoint" />
            <mxPoint x="270" y="151" as="targetPoint" />
          </mxGeometry>
        </mxCell>
        <mxCell id="WVK-Z61vjBoYHEyCaG1b-45" value="&lt;font style=&quot;font-size: 7px;&quot;&gt;Ora&lt;/font&gt;" style="text;html=1;strokeColor=none;fillColor=none;align=center;verticalAlign=middle;whiteSpace=wrap;rounded=0;" vertex="1" parent="1">
          <mxGeometry x="240" y="170" width="60" height="30" as="geometry" />
        </mxCell>
        <mxCell id="WVK-Z61vjBoYHEyCaG1b-49" value="Turni" style="rounded=0;whiteSpace=wrap;html=1;" vertex="1" parent="1">
          <mxGeometry x="40" y="380" width="120" height="60" as="geometry" />
        </mxCell>
        <mxCell id="WVK-Z61vjBoYHEyCaG1b-50" value="" style="endArrow=oval;html=1;rounded=0;exitX=0.5;exitY=0;exitDx=0;exitDy=0;endFill=0;strokeColor=#000000;" edge="1" parent="1" target="WVK-Z61vjBoYHEyCaG1b-51">
          <mxGeometry width="50" height="50" relative="1" as="geometry">
            <mxPoint x="80" y="380" as="sourcePoint" />
            <mxPoint x="80" y="330" as="targetPoint" />
          </mxGeometry>
        </mxCell>
        <mxCell id="WVK-Z61vjBoYHEyCaG1b-51" value="&lt;font style=&quot;font-size: 7px;&quot;&gt;Orario_fine&lt;br&gt;&lt;/font&gt;" style="text;html=1;strokeColor=none;fillColor=none;align=center;verticalAlign=middle;whiteSpace=wrap;rounded=0;" vertex="1" parent="1">
          <mxGeometry x="50" y="320" width="60" height="30" as="geometry" />
        </mxCell>
        <mxCell id="WVK-Z61vjBoYHEyCaG1b-54" value="" style="endArrow=oval;html=1;rounded=0;exitX=0.5;exitY=0;exitDx=0;exitDy=0;endFill=1;fontColor=#FFFFFF;strokeColor=#000000;labelBackgroundColor=#757575;" edge="1" parent="1" target="WVK-Z61vjBoYHEyCaG1b-55">
          <mxGeometry width="50" height="50" relative="1" as="geometry">
            <mxPoint x="120" y="380" as="sourcePoint" />
            <mxPoint x="120" y="330" as="targetPoint" />
          </mxGeometry>
        </mxCell>
        <mxCell id="WVK-Z61vjBoYHEyCaG1b-55" value="&lt;font style=&quot;font-size: 7px;&quot;&gt;ID_Turno&lt;/font&gt;" style="text;html=1;strokeColor=none;fillColor=none;align=center;verticalAlign=middle;whiteSpace=wrap;rounded=0;" vertex="1" parent="1">
          <mxGeometry x="90" y="320" width="60" height="30" as="geometry" />
        </mxCell>
        <mxCell id="WVK-Z61vjBoYHEyCaG1b-56" value="" style="endArrow=oval;html=1;rounded=0;exitX=0.417;exitY=0;exitDx=0;exitDy=0;endFill=0;exitPerimeter=0;" edge="1" parent="1" target="WVK-Z61vjBoYHEyCaG1b-57">
          <mxGeometry width="50" height="50" relative="1" as="geometry">
            <mxPoint x="60" y="380" as="sourcePoint" />
            <mxPoint x="60" y="310" as="targetPoint" />
          </mxGeometry>
        </mxCell>
        <mxCell id="WVK-Z61vjBoYHEyCaG1b-57" value="&lt;font style=&quot;font-size: 7px;&quot;&gt;Orario_inizio&lt;br&gt;&lt;/font&gt;" style="text;html=1;strokeColor=none;fillColor=none;align=center;verticalAlign=middle;whiteSpace=wrap;rounded=0;" vertex="1" parent="1">
          <mxGeometry x="30" y="290" width="60" height="30" as="geometry" />
        </mxCell>
        <mxCell id="WVK-Z61vjBoYHEyCaG1b-58" value="" style="shape=waypoint;sketch=0;fillStyle=solid;size=6;pointerEvents=1;points=[];fillColor=none;resizable=0;rotatable=0;perimeter=centerPerimeter;snapToPoint=1;strokeColor=#000000;" vertex="1" parent="1">
          <mxGeometry x="110" y="340" width="20" height="20" as="geometry" />
        </mxCell>
        <mxCell id="WVK-Z61vjBoYHEyCaG1b-60" value="Avere" style="shape=rhombus;perimeter=rhombusPerimeter;whiteSpace=wrap;html=1;align=center;" vertex="1" parent="1">
          <mxGeometry x="95" y="230" width="70" height="40" as="geometry" />
        </mxCell>
        <mxCell id="WVK-Z61vjBoYHEyCaG1b-72" value="" style="endArrow=none;html=1;rounded=0;exitX=0.75;exitY=1;exitDx=0;exitDy=0;entryX=0.5;entryY=0;entryDx=0;entryDy=0;" edge="1" parent="1" source="1GTwUBaE6gafLs46mViq-3" target="WVK-Z61vjBoYHEyCaG1b-60">
          <mxGeometry relative="1" as="geometry">
            <mxPoint x="90" y="240" as="sourcePoint" />
            <mxPoint x="250" y="240" as="targetPoint" />
          </mxGeometry>
        </mxCell>
        <mxCell id="WVK-Z61vjBoYHEyCaG1b-73" value="1,1" style="resizable=0;html=1;whiteSpace=wrap;align=right;verticalAlign=bottom;" connectable="0" vertex="1" parent="WVK-Z61vjBoYHEyCaG1b-72">
          <mxGeometry x="1" relative="1" as="geometry" />
        </mxCell>
        <mxCell id="WVK-Z61vjBoYHEyCaG1b-76" value="" style="endArrow=none;html=1;rounded=0;exitX=0.867;exitY=0.006;exitDx=0;exitDy=0;exitPerimeter=0;entryX=0.5;entryY=1;entryDx=0;entryDy=0;" edge="1" parent="1" source="WVK-Z61vjBoYHEyCaG1b-49" target="WVK-Z61vjBoYHEyCaG1b-60">
          <mxGeometry relative="1" as="geometry">
            <mxPoint x="90" y="290" as="sourcePoint" />
            <mxPoint x="250" y="290" as="targetPoint" />
            <Array as="points">
              <mxPoint x="144" y="300" />
              <mxPoint x="130" y="300" />
            </Array>
          </mxGeometry>
        </mxCell>
        <mxCell id="WVK-Z61vjBoYHEyCaG1b-77" value="1,1" style="resizable=0;html=1;whiteSpace=wrap;align=right;verticalAlign=bottom;" connectable="0" vertex="1" parent="WVK-Z61vjBoYHEyCaG1b-76">
          <mxGeometry x="1" relative="1" as="geometry">
            <mxPoint y="20" as="offset" />
          </mxGeometry>
        </mxCell>
        <mxCell id="WVK-Z61vjBoYHEyCaG1b-78" value="" style="endArrow=oval;html=1;rounded=0;exitDx=0;exitDy=0;endFill=1;fontColor=#FFFFFF;strokeColor=#000000;labelBackgroundColor=#757575;" edge="1" parent="1" source="WVK-Z61vjBoYHEyCaG1b-80">
          <mxGeometry width="50" height="50" relative="1" as="geometry">
            <mxPoint x="160" y="400" as="sourcePoint" />
            <mxPoint x="180" y="400" as="targetPoint" />
          </mxGeometry>
        </mxCell>
        <mxCell id="WVK-Z61vjBoYHEyCaG1b-79" value="&lt;font style=&quot;font-size: 7px;&quot;&gt;ID_Utente&lt;/font&gt;" style="text;html=1;strokeColor=none;fillColor=none;align=center;verticalAlign=middle;whiteSpace=wrap;rounded=0;" vertex="1" parent="1">
          <mxGeometry x="150" y="380" width="60" height="20" as="geometry" />
        </mxCell>
        <mxCell id="WVK-Z61vjBoYHEyCaG1b-81" value="" style="endArrow=oval;html=1;rounded=0;exitX=1;exitY=0.5;exitDx=0;exitDy=0;endFill=1;fontColor=#FFFFFF;strokeColor=#000000;labelBackgroundColor=#757575;" edge="1" parent="1" target="WVK-Z61vjBoYHEyCaG1b-80">
          <mxGeometry width="50" height="50" relative="1" as="geometry">
            <mxPoint x="160" y="400" as="sourcePoint" />
            <mxPoint x="180" y="400" as="targetPoint" />
          </mxGeometry>
        </mxCell>
        <mxCell id="WVK-Z61vjBoYHEyCaG1b-80" value="" style="shape=waypoint;sketch=0;fillStyle=solid;size=6;pointerEvents=1;points=[];fillColor=none;resizable=0;rotatable=0;perimeter=centerPerimeter;snapToPoint=1;strokeColor=#8f8f8f;" vertex="1" parent="1">
          <mxGeometry x="170" y="390" width="20" height="20" as="geometry" />
        </mxCell>
      </root>
    </mxGraphModel>
  </diagram>
</mxfile>
